<?xml version="1.0" encoding="UTF-8"?>
<svg width="100" height="100" viewBox="0 0 100 100" xmlns="http://www.w3.org/2000/svg">
  <!-- Petals -->
  <g id="petals">
    <!-- Top petal -->
    <path d="M50 5 C30 25, 30 45, 50 50 C70 45, 70 25, 50 5" fill="#ff69b4"/>
    <!-- Top right petal -->
    <path d="M75 15 C65 5, 45 10, 50 50 C55 10, 85 25, 75 15" fill="#ff69b4"/>
    <!-- Right petal -->
    <path d="M85 50 C70 30, 50 30, 50 50 C50 70, 70 70, 85 50" fill="#ff69b4"/>
    <!-- Bottom right petal -->
    <path d="M75 85 C85 75, 55 90, 50 50 C45 90, 65 95, 75 85" fill="#ff69b4"/>
    <!-- Bottom petal -->
    <path d="M50 95 C70 75, 70 55, 50 50 C30 55, 30 75, 50 95" fill="#ff69b4"/>
    <!-- Bottom left petal -->
    <path d="M25 85 C15 75, 45 90, 50 50 C55 90, 35 95, 25 85" fill="#ff69b4"/>
    <!-- Left petal -->
    <path d="M15 50 C30 70, 50 70, 50 50 C50 30, 30 30, 15 50" fill="#ff69b4"/>
    <!-- Top left petal -->
    <path d="M25 15 C35 5, 55 10, 50 50 C45 10, 15 25, 25 15" fill="#ff69b4"/>
  </g>
  <!-- Center -->
  <circle cx="50" cy="50" r="18" fill="#ffeb3b"/>
</svg>
